<?xml version="1.0" encoding="utf-8"?>
<!-- Generator: Adobe Illustrator 26.0.1, SVG Export Plug-In . SVG Version: 6.00 Build 0)  -->
<svg version="1.1" id="Layer_1" xmlns="http://www.w3.org/2000/svg" xmlns:xlink="http://www.w3.org/1999/xlink" x="0px" y="0px"
	 viewBox="0 0 100 100" style="enable-background:new 0 0 100 100;" xml:space="preserve">
<style type="text/css">
	.st0{fill:#DB2777;}
</style>
<g>
	<g>
		<path class="st0" d="M85.5,62.9H13.3c-1.7,0-3.1-1.5-3.1-3.4V12.7c0-1.9,1.4-3.4,3.1-3.4h72.2c1.7,0,3.1,1.5,3.1,3.4v46.8
			C88.6,61.4,87.2,62.9,85.5,62.9z M16.4,56.1h65.9v-40H16.4V56.1z"/>
	</g>
	<g>
		<path class="st0" d="M89.4,69.5c-0.4-1.2-1.9-2.3-3.2-2.3H12.4c-1.3,0-2.7,1-3,2.3L4,88.4c-0.4,1.3,0.4,2.3,1.7,2.3h88.5
			c1.3,0,2-1,1.6-2.3L89.4,69.5z M52.3,86.8c-1.3,0-2.5,0-2.7,0c-0.2,0-1.4,0-2.7,0h-6c-1.3,0-2.1-1-1.8-2.3l0.5-2
			c0.3-1.3,1.7-2.3,3-2.3h4.3c1.3,0,2.5,0,2.7,0c0.2,0,1.4,0,2.7,0h4.3c1.3,0,2.7,1,3,2.3l0.5,2c0.3,1.3-0.5,2.3-1.8,2.3H52.3z"/>
	</g>
</g>
</svg>
